<svg xmlns="http://www.w3.org/2000/svg" class="rounded-xl" viewBox="0 0 442.86 590.48"><rect width="442.86" height="590.48" fill="#ffffff" id="bg" class="bg"/><g><g transform="translate(0.00,&#10;                                44.29) rotate(0, 22.143, 22.143)"><svg xmlns="http://www.w3.org/2000/svg" id="Layer_1" data-name="Layer 1" viewBox="0 0 100 100" width="44.286" height="44.286"><circle cx="50" cy="50" r="50" fill="#7678ED"/></svg></g><g transform="translate(44.29,&#10;                                44.29) rotate(180, 22.143, 22.143)"><svg xmlns="http://www.w3.org/2000/svg" id="Layer_1" data-name="Layer 1" viewBox="0 0 100 100" width="44.286" height="44.286"><circle cx="50" cy="50" r="50" fill="#7678ED"/></svg></g><g transform="translate(88.57,&#10;                                44.29) rotate(180, 22.143, 22.143)"><svg xmlns="http://www.w3.org/2000/svg" id="Layer_1" data-name="Layer 1" viewBox="0 0 100 100" width="44.286" height="44.286"><circle cx="50" cy="50" r="50" fill="#7678ED"/></svg></g><g transform="translate(177.14,&#10;                                0.00) rotate(180, 22.143, 22.143)"><svg xmlns="http://www.w3.org/2000/svg" id="Layer_1" data-name="Layer 1" viewBox="0 0 100 100" width="44.286" height="44.286"><path d="M50,100a50,50,0,1,1,50-50v50Z" fill="#3D348B"/></svg></g><g transform="translate(177.14,&#10;                                44.29) rotate(0, 22.143, 22.143)"><svg xmlns="http://www.w3.org/2000/svg" id="Layer_1" data-name="Layer 1" viewBox="0 0 100 100" width="44.286" height="44.286"><path d="M50,100h0A50,50,0,0,1,0,50V0H100V50A50,50,0,0,1,50,100Z" fill="#F18701"/></svg></g><g transform="translate(221.43,&#10;                                44.29) rotate(270, 22.143, 22.143)"><svg xmlns="http://www.w3.org/2000/svg" id="Layer_1" data-name="Layer 1" viewBox="0 0 100 100" width="44.286" height="44.286"><path d="M100,100A50,50,0,0,0,0,100Z" fill="#F7B801"/></svg></g><g transform="translate(354.29,&#10;                                0.00) rotate(0, 22.143, 22.143)"><svg xmlns="http://www.w3.org/2000/svg" id="Layer_1" data-name="Layer 1" viewBox="0 0 100 100" width="44.286" height="44.286"><path d="M100,100A50,50,0,0,0,0,100Z" fill="#F7B801"/></svg></g><g transform="translate(354.29,&#10;                                44.29) rotate(0, 22.143, 22.143)"><svg xmlns="http://www.w3.org/2000/svg" id="Layer_1" data-name="Layer 1" viewBox="0 0 100 100" width="44.286" height="44.286"><path d="M50,100h0A50,50,0,0,1,0,50V0H100V50A50,50,0,0,1,50,100Z" fill="#F18701"/></svg></g><g transform="translate(398.57,&#10;                                44.29) rotate(270, 22.143, 22.143)"><svg xmlns="http://www.w3.org/2000/svg" id="Layer_1" data-name="Layer 1" viewBox="0 0 100 100" width="44.286" height="44.286"><path d="M100,100A50,50,0,0,0,0,100Z" fill="#F7B801"/></svg></g></g><g><g transform="translate(0.00,&#10;                                132.86) rotate(0, 22.143, 22.143)"><svg xmlns="http://www.w3.org/2000/svg" id="Layer_1" data-name="Layer 1" viewBox="0 0 100 100" width="44.286" height="44.286"><path d="M50,100h0A50,50,0,0,1,0,50V0H100V50A50,50,0,0,1,50,100Z" fill="#F18701"/></svg></g><g transform="translate(44.29,&#10;                                132.86) rotate(0, 22.143, 22.143)"><svg xmlns="http://www.w3.org/2000/svg" id="Layer_1" data-name="Layer 1" viewBox="0 0 100 100" width="44.286" height="44.286"><circle cx="50" cy="50" r="50" fill="#7678ED"/></svg></g><g transform="translate(132.86,&#10;                                88.57) rotate(0, 22.143, 22.143)"><svg xmlns="http://www.w3.org/2000/svg" id="Layer_1" data-name="Layer 1" viewBox="0 0 100 100" width="44.286" height="44.286"><circle cx="50" cy="50" r="50" fill="#7678ED"/></svg></g><g transform="translate(88.57,&#10;                                132.86) rotate(180, 22.143, 22.143)"><svg xmlns="http://www.w3.org/2000/svg" id="Layer_1" data-name="Layer 1" viewBox="0 0 100 100" width="44.286" height="44.286"><circle cx="50" cy="50" r="50" fill="#7678ED"/></svg></g><g transform="translate(132.86,&#10;                                132.86) rotate(90, 22.143, 22.143)"><svg xmlns="http://www.w3.org/2000/svg" id="Layer_1" data-name="Layer 1" viewBox="0 0 100 100" width="44.286" height="44.286"><path d="M50,100h0A50,50,0,0,1,0,50V0H100V50A50,50,0,0,1,50,100Z" fill="#F18701"/></svg></g><g transform="translate(221.43,&#10;                                88.57) rotate(0, 22.143, 22.143)"><svg xmlns="http://www.w3.org/2000/svg" id="Layer_1" data-name="Layer 1" viewBox="0 0 100 100" width="44.286" height="44.286"><path d="M100,100A50,50,0,0,0,0,100Z" fill="#F7B801"/></svg></g><g transform="translate(177.14,&#10;                                132.86) rotate(0, 22.143, 22.143)"><svg xmlns="http://www.w3.org/2000/svg" id="Layer_1" data-name="Layer 1" viewBox="0 0 100 100" width="44.286" height="44.286"><circle cx="50" cy="50" r="50" fill="#7678ED"/></svg></g><g transform="translate(221.43,&#10;                                132.86) rotate(0, 22.143, 22.143)"><svg xmlns="http://www.w3.org/2000/svg" id="Layer_1" data-name="Layer 1" viewBox="0 0 100 100" width="44.286" height="44.286"><path d="M50,100h0A50,50,0,0,1,0,50V0H100V50A50,50,0,0,1,50,100Z" fill="#F18701"/></svg></g><g transform="translate(265.72,&#10;                                88.57) rotate(90, 22.143, 22.143)"><svg xmlns="http://www.w3.org/2000/svg" id="Layer_1" data-name="Layer 1" viewBox="0 0 100 100" width="44.286" height="44.286"><circle cx="50" cy="50" r="50" fill="#7678ED"/></svg></g><g transform="translate(265.72,&#10;                                132.86) rotate(0, 22.143, 22.143)"><svg xmlns="http://www.w3.org/2000/svg" id="Layer_1" data-name="Layer 1" viewBox="0 0 100 100" width="44.286" height="44.286"><circle cx="50" cy="50" r="50" fill="#7678ED"/></svg></g><g transform="translate(310.00,&#10;                                132.86) rotate(180, 22.143, 22.143)"><svg xmlns="http://www.w3.org/2000/svg" id="Layer_1" data-name="Layer 1" viewBox="0 0 100 100" width="44.286" height="44.286"><circle cx="50" cy="50" r="50" fill="#7678ED"/></svg></g><g transform="translate(354.29,&#10;                                88.57) rotate(270, 22.143, 22.143)"><svg xmlns="http://www.w3.org/2000/svg" id="Layer_1" data-name="Layer 1" viewBox="0 0 100 100" width="44.286" height="44.286"><path d="M50,100a50,50,0,1,1,50-50v50Z" fill="#3D348B"/></svg></g><g transform="translate(354.29,&#10;                                132.86) rotate(180, 22.143, 22.143)"><svg xmlns="http://www.w3.org/2000/svg" id="Layer_1" data-name="Layer 1" viewBox="0 0 100 100" width="44.286" height="44.286"><path d="M50,100h0A50,50,0,0,1,0,50V0H100V50A50,50,0,0,1,50,100Z" fill="#F18701"/></svg></g><g transform="translate(398.57,&#10;                                132.86) rotate(270, 22.143, 22.143)"><svg xmlns="http://www.w3.org/2000/svg" id="Layer_1" data-name="Layer 1" viewBox="0 0 100 100" width="44.286" height="44.286"><path d="M50,100h0A50,50,0,0,1,0,50V0H100V50A50,50,0,0,1,50,100Z" fill="#F18701"/></svg></g></g><g><g transform="translate(0.00,&#10;                                177.14) rotate(0, 22.143, 22.143)"><svg xmlns="http://www.w3.org/2000/svg" id="Layer_1" data-name="Layer 1" viewBox="0 0 100 100" width="44.286" height="44.286"><path d="M50,100a50,50,0,1,1,50-50v50Z" fill="#3D348B"/></svg></g><g transform="translate(44.29,&#10;                                177.14) rotate(0, 22.143, 22.143)"><svg xmlns="http://www.w3.org/2000/svg" id="Layer_1" data-name="Layer 1" viewBox="0 0 100 100" width="44.286" height="44.286"><path d="M100,100A50,50,0,0,0,0,100Z" fill="#F7B801"/></svg></g><g transform="translate(0.00,&#10;                                221.43) rotate(180, 22.143, 22.143)"><svg xmlns="http://www.w3.org/2000/svg" id="Layer_1" data-name="Layer 1" viewBox="0 0 100 100" width="44.286" height="44.286"><path d="M50,100h0A50,50,0,0,1,0,50V0H100V50A50,50,0,0,1,50,100Z" fill="#F18701"/></svg></g><g transform="translate(44.29,&#10;                                221.43) rotate(270, 22.143, 22.143)"><svg xmlns="http://www.w3.org/2000/svg" id="Layer_1" data-name="Layer 1" viewBox="0 0 100 100" width="44.286" height="44.286"><path d="M100,100A50,50,0,0,0,0,100Z" fill="#F7B801"/></svg></g><g transform="translate(88.57,&#10;                                177.14) rotate(0, 22.143, 22.143)"><svg xmlns="http://www.w3.org/2000/svg" id="Layer_1" data-name="Layer 1" viewBox="0 0 100 100" width="44.286" height="44.286"><path d="M50,100a50,50,0,1,1,50-50v50Z" fill="#3D348B"/></svg></g><g transform="translate(132.86,&#10;                                177.14) rotate(180, 22.143, 22.143)"><svg xmlns="http://www.w3.org/2000/svg" id="Layer_1" data-name="Layer 1" viewBox="0 0 100 100" width="44.286" height="44.286"><circle cx="50" cy="50" r="50" fill="#7678ED"/></svg></g><g transform="translate(88.57,&#10;                                221.43) rotate(180, 22.143, 22.143)"><svg xmlns="http://www.w3.org/2000/svg" id="Layer_1" data-name="Layer 1" viewBox="0 0 100 100" width="44.286" height="44.286"><circle cx="50" cy="50" r="50" fill="#7678ED"/></svg></g><g transform="translate(132.86,&#10;                                221.43) rotate(270, 22.143, 22.143)"><svg xmlns="http://www.w3.org/2000/svg" id="Layer_1" data-name="Layer 1" viewBox="0 0 100 100" width="44.286" height="44.286"><path d="M50,100h0A50,50,0,0,1,0,50V0H100V50A50,50,0,0,1,50,100Z" fill="#F18701"/></svg></g><g transform="translate(177.14,&#10;                                177.14) rotate(0, 22.143, 22.143)"><svg xmlns="http://www.w3.org/2000/svg" id="Layer_1" data-name="Layer 1" viewBox="0 0 100 100" width="44.286" height="44.286"><path d="M50,100a50,50,0,1,1,50-50v50Z" fill="#3D348B"/></svg></g><g transform="translate(221.43,&#10;                                177.14) rotate(270, 22.143, 22.143)"><svg xmlns="http://www.w3.org/2000/svg" id="Layer_1" data-name="Layer 1" viewBox="0 0 100 100" width="44.286" height="44.286"><circle cx="50" cy="50" r="50" fill="#7678ED"/></svg></g><g transform="translate(177.14,&#10;                                221.43) rotate(90, 22.143, 22.143)"><svg xmlns="http://www.w3.org/2000/svg" id="Layer_1" data-name="Layer 1" viewBox="0 0 100 100" width="44.286" height="44.286"><path d="M50,100h0A50,50,0,0,1,0,50V0H100V50A50,50,0,0,1,50,100Z" fill="#F18701"/></svg></g><g transform="translate(265.72,&#10;                                177.14) rotate(90, 22.143, 22.143)"><svg xmlns="http://www.w3.org/2000/svg" id="Layer_1" data-name="Layer 1" viewBox="0 0 100 100" width="44.286" height="44.286"><path d="M50,100a50,50,0,1,1,50-50v50Z" fill="#3D348B"/></svg></g><g transform="translate(310.00,&#10;                                221.43) rotate(180, 22.143, 22.143)"><svg xmlns="http://www.w3.org/2000/svg" id="Layer_1" data-name="Layer 1" viewBox="0 0 100 100" width="44.286" height="44.286"><path d="M50,100h0A50,50,0,0,1,0,50V0H100V50A50,50,0,0,1,50,100Z" fill="#F18701"/></svg></g><g transform="translate(354.29,&#10;                                177.14) rotate(270, 22.143, 22.143)"><svg xmlns="http://www.w3.org/2000/svg" id="Layer_1" data-name="Layer 1" viewBox="0 0 100 100" width="44.286" height="44.286"><circle cx="50" cy="50" r="50" fill="#7678ED"/></svg></g><g transform="translate(398.57,&#10;                                177.14) rotate(270, 22.143, 22.143)"><svg xmlns="http://www.w3.org/2000/svg" id="Layer_1" data-name="Layer 1" viewBox="0 0 100 100" width="44.286" height="44.286"><path d="M100,100A50,50,0,0,0,0,100Z" fill="#F7B801"/></svg></g><g transform="translate(354.29,&#10;                                221.43) rotate(270, 22.143, 22.143)"><svg xmlns="http://www.w3.org/2000/svg" id="Layer_1" data-name="Layer 1" viewBox="0 0 100 100" width="44.286" height="44.286"><path d="M50,100h0A50,50,0,0,1,0,50V0H100V50A50,50,0,0,1,50,100Z" fill="#F18701"/></svg></g><g transform="translate(398.57,&#10;                                221.43) rotate(270, 22.143, 22.143)"><svg xmlns="http://www.w3.org/2000/svg" id="Layer_1" data-name="Layer 1" viewBox="0 0 100 100" width="44.286" height="44.286"><path d="M50,100h0A50,50,0,0,1,0,50V0H100V50A50,50,0,0,1,50,100Z" fill="#F18701"/></svg></g></g><g><g transform="translate(44.29,&#10;                                265.72) rotate(90, 22.143, 22.143)"><svg xmlns="http://www.w3.org/2000/svg" id="Layer_1" data-name="Layer 1" viewBox="0 0 100 100" width="44.286" height="44.286"><path d="M100,100A50,50,0,0,0,0,100Z" fill="#F7B801"/></svg></g><g transform="translate(0.00,&#10;                                310.00) rotate(270, 22.143, 22.143)"><svg xmlns="http://www.w3.org/2000/svg" id="Layer_1" data-name="Layer 1" viewBox="0 0 100 100" width="44.286" height="44.286"><path d="M50,100h0A50,50,0,0,1,0,50V0H100V50A50,50,0,0,1,50,100Z" fill="#F18701"/></svg></g><g transform="translate(88.57,&#10;                                265.72) rotate(0, 22.143, 22.143)"><svg xmlns="http://www.w3.org/2000/svg" id="Layer_1" data-name="Layer 1" viewBox="0 0 100 100" width="44.286" height="44.286"><path d="M50,100a50,50,0,1,1,50-50v50Z" fill="#3D348B"/></svg></g><g transform="translate(88.57,&#10;                                310.00) rotate(0, 22.143, 22.143)"><svg xmlns="http://www.w3.org/2000/svg" id="Layer_1" data-name="Layer 1" viewBox="0 0 100 100" width="44.286" height="44.286"><path d="M50,100h0A50,50,0,0,1,0,50V0H100V50A50,50,0,0,1,50,100Z" fill="#F18701"/></svg></g><g transform="translate(132.86,&#10;                                310.00) rotate(180, 22.143, 22.143)"><svg xmlns="http://www.w3.org/2000/svg" id="Layer_1" data-name="Layer 1" viewBox="0 0 100 100" width="44.286" height="44.286"><circle cx="50" cy="50" r="50" fill="#7678ED"/></svg></g><g transform="translate(221.43,&#10;                                265.72) rotate(0, 22.143, 22.143)"><svg xmlns="http://www.w3.org/2000/svg" id="Layer_1" data-name="Layer 1" viewBox="0 0 100 100" width="44.286" height="44.286"><path d="M100,100A50,50,0,0,0,0,100Z" fill="#F7B801"/></svg></g><g transform="translate(177.14,&#10;                                310.00) rotate(270, 22.143, 22.143)"><svg xmlns="http://www.w3.org/2000/svg" id="Layer_1" data-name="Layer 1" viewBox="0 0 100 100" width="44.286" height="44.286"><circle cx="50" cy="50" r="50" fill="#7678ED"/></svg></g><g transform="translate(265.72,&#10;                                265.72) rotate(0, 22.143, 22.143)"><svg xmlns="http://www.w3.org/2000/svg" id="Layer_1" data-name="Layer 1" viewBox="0 0 100 100" width="44.286" height="44.286"><path d="M100,100A50,50,0,0,0,0,100Z" fill="#F7B801"/></svg></g><g transform="translate(310.00,&#10;                                310.00) rotate(270, 22.143, 22.143)"><svg xmlns="http://www.w3.org/2000/svg" id="Layer_1" data-name="Layer 1" viewBox="0 0 100 100" width="44.286" height="44.286"><circle cx="50" cy="50" r="50" fill="#7678ED"/></svg></g><g transform="translate(354.29,&#10;                                265.72) rotate(0, 22.143, 22.143)"><svg xmlns="http://www.w3.org/2000/svg" id="Layer_1" data-name="Layer 1" viewBox="0 0 100 100" width="44.286" height="44.286"><path d="M50,100a50,50,0,1,1,50-50v50Z" fill="#3D348B"/></svg></g><g transform="translate(354.29,&#10;                                310.00) rotate(180, 22.143, 22.143)"><svg xmlns="http://www.w3.org/2000/svg" id="Layer_1" data-name="Layer 1" viewBox="0 0 100 100" width="44.286" height="44.286"><circle cx="50" cy="50" r="50" fill="#7678ED"/></svg></g></g><g><g transform="translate(0.00,&#10;                                354.29) rotate(0, 22.143, 22.143)"><svg xmlns="http://www.w3.org/2000/svg" id="Layer_1" data-name="Layer 1" viewBox="0 0 100 100" width="44.286" height="44.286"><path d="M50,100a50,50,0,1,1,50-50v50Z" fill="#3D348B"/></svg></g><g transform="translate(0.00,&#10;                                398.57) rotate(0, 22.143, 22.143)"><svg xmlns="http://www.w3.org/2000/svg" id="Layer_1" data-name="Layer 1" viewBox="0 0 100 100" width="44.286" height="44.286"><circle cx="50" cy="50" r="50" fill="#7678ED"/></svg></g><g transform="translate(88.57,&#10;                                354.29) rotate(90, 22.143, 22.143)"><svg xmlns="http://www.w3.org/2000/svg" id="Layer_1" data-name="Layer 1" viewBox="0 0 100 100" width="44.286" height="44.286"><path d="M100,100A50,50,0,0,0,0,100Z" fill="#F7B801"/></svg></g><g transform="translate(88.57,&#10;                                398.57) rotate(90, 22.143, 22.143)"><svg xmlns="http://www.w3.org/2000/svg" id="Layer_1" data-name="Layer 1" viewBox="0 0 100 100" width="44.286" height="44.286"><path d="M50,100h0A50,50,0,0,1,0,50V0H100V50A50,50,0,0,1,50,100Z" fill="#F18701"/></svg></g><g transform="translate(177.14,&#10;                                354.29) rotate(180, 22.143, 22.143)"><svg xmlns="http://www.w3.org/2000/svg" id="Layer_1" data-name="Layer 1" viewBox="0 0 100 100" width="44.286" height="44.286"><path d="M50,100a50,50,0,1,1,50-50v50Z" fill="#3D348B"/></svg></g><g transform="translate(177.14,&#10;                                398.57) rotate(0, 22.143, 22.143)"><svg xmlns="http://www.w3.org/2000/svg" id="Layer_1" data-name="Layer 1" viewBox="0 0 100 100" width="44.286" height="44.286"><path d="M50,100h0A50,50,0,0,1,0,50V0H100V50A50,50,0,0,1,50,100Z" fill="#F18701"/></svg></g><g transform="translate(221.43,&#10;                                398.57) rotate(180, 22.143, 22.143)"><svg xmlns="http://www.w3.org/2000/svg" id="Layer_1" data-name="Layer 1" viewBox="0 0 100 100" width="44.286" height="44.286"><path d="M50,100h0A50,50,0,0,1,0,50V0H100V50A50,50,0,0,1,50,100Z" fill="#F18701"/></svg></g><g transform="translate(310.00,&#10;                                354.29) rotate(180, 22.143, 22.143)"><svg xmlns="http://www.w3.org/2000/svg" id="Layer_1" data-name="Layer 1" viewBox="0 0 100 100" width="44.286" height="44.286"><circle cx="50" cy="50" r="50" fill="#7678ED"/></svg></g><g transform="translate(265.72,&#10;                                398.57) rotate(180, 22.143, 22.143)"><svg xmlns="http://www.w3.org/2000/svg" id="Layer_1" data-name="Layer 1" viewBox="0 0 100 100" width="44.286" height="44.286"><path d="M50,100h0A50,50,0,0,1,0,50V0H100V50A50,50,0,0,1,50,100Z" fill="#F18701"/></svg></g><g transform="translate(310.00,&#10;                                398.57) rotate(270, 22.143, 22.143)"><svg xmlns="http://www.w3.org/2000/svg" id="Layer_1" data-name="Layer 1" viewBox="0 0 100 100" width="44.286" height="44.286"><path d="M50,100h0A50,50,0,0,1,0,50V0H100V50A50,50,0,0,1,50,100Z" fill="#F18701"/></svg></g><g transform="translate(354.29,&#10;                                354.29) rotate(90, 22.143, 22.143)"><svg xmlns="http://www.w3.org/2000/svg" id="Layer_1" data-name="Layer 1" viewBox="0 0 100 100" width="44.286" height="44.286"><circle cx="50" cy="50" r="50" fill="#7678ED"/></svg></g><g transform="translate(398.57,&#10;                                354.29) rotate(90, 22.143, 22.143)"><svg xmlns="http://www.w3.org/2000/svg" id="Layer_1" data-name="Layer 1" viewBox="0 0 100 100" width="44.286" height="44.286"><circle cx="50" cy="50" r="50" fill="#7678ED"/></svg></g><g transform="translate(398.57,&#10;                                398.57) rotate(270, 22.143, 22.143)"><svg xmlns="http://www.w3.org/2000/svg" id="Layer_1" data-name="Layer 1" viewBox="0 0 100 100" width="44.286" height="44.286"><path d="M50,100h0A50,50,0,0,1,0,50V0H100V50A50,50,0,0,1,50,100Z" fill="#F18701"/></svg></g></g><g><g transform="translate(0.00,&#10;                                487.15) rotate(0, 22.143, 22.143)"><svg xmlns="http://www.w3.org/2000/svg" id="Layer_1" data-name="Layer 1" viewBox="0 0 100 100" width="44.286" height="44.286"><circle cx="50" cy="50" r="50" fill="#7678ED"/></svg></g><g transform="translate(44.29,&#10;                                487.15) rotate(0, 22.143, 22.143)"><svg xmlns="http://www.w3.org/2000/svg" id="Layer_1" data-name="Layer 1" viewBox="0 0 100 100" width="44.286" height="44.286"><path d="M50,100h0A50,50,0,0,1,0,50V0H100V50A50,50,0,0,1,50,100Z" fill="#F18701"/></svg></g><g transform="translate(88.57,&#10;                                442.86) rotate(180, 22.143, 22.143)"><svg xmlns="http://www.w3.org/2000/svg" id="Layer_1" data-name="Layer 1" viewBox="0 0 100 100" width="44.286" height="44.286"><path d="M50,100a50,50,0,1,1,50-50v50Z" fill="#3D348B"/></svg></g><g transform="translate(88.57,&#10;                                487.15) rotate(90, 22.143, 22.143)"><svg xmlns="http://www.w3.org/2000/svg" id="Layer_1" data-name="Layer 1" viewBox="0 0 100 100" width="44.286" height="44.286"><path d="M50,100h0A50,50,0,0,1,0,50V0H100V50A50,50,0,0,1,50,100Z" fill="#F18701"/></svg></g><g transform="translate(132.86,&#10;                                487.15) rotate(0, 22.143, 22.143)"><svg xmlns="http://www.w3.org/2000/svg" id="Layer_1" data-name="Layer 1" viewBox="0 0 100 100" width="44.286" height="44.286"><path d="M100,100A50,50,0,0,0,0,100Z" fill="#F7B801"/></svg></g><g transform="translate(177.14,&#10;                                442.86) rotate(180, 22.143, 22.143)"><svg xmlns="http://www.w3.org/2000/svg" id="Layer_1" data-name="Layer 1" viewBox="0 0 100 100" width="44.286" height="44.286"><circle cx="50" cy="50" r="50" fill="#7678ED"/></svg></g><g transform="translate(221.43,&#10;                                442.86) rotate(180, 22.143, 22.143)"><svg xmlns="http://www.w3.org/2000/svg" id="Layer_1" data-name="Layer 1" viewBox="0 0 100 100" width="44.286" height="44.286"><path d="M100,100A50,50,0,0,0,0,100Z" fill="#F7B801"/></svg></g><g transform="translate(177.14,&#10;                                487.15) rotate(0, 22.143, 22.143)"><svg xmlns="http://www.w3.org/2000/svg" id="Layer_1" data-name="Layer 1" viewBox="0 0 100 100" width="44.286" height="44.286"><path d="M50,100h0A50,50,0,0,1,0,50V0H100V50A50,50,0,0,1,50,100Z" fill="#F18701"/></svg></g><g transform="translate(221.43,&#10;                                487.15) rotate(270, 22.143, 22.143)"><svg xmlns="http://www.w3.org/2000/svg" id="Layer_1" data-name="Layer 1" viewBox="0 0 100 100" width="44.286" height="44.286"><circle cx="50" cy="50" r="50" fill="#7678ED"/></svg></g><g transform="translate(265.72,&#10;                                487.15) rotate(270, 22.143, 22.143)"><svg xmlns="http://www.w3.org/2000/svg" id="Layer_1" data-name="Layer 1" viewBox="0 0 100 100" width="44.286" height="44.286"><path d="M50,100h0A50,50,0,0,1,0,50V0H100V50A50,50,0,0,1,50,100Z" fill="#F18701"/></svg></g><g transform="translate(310.00,&#10;                                487.15) rotate(270, 22.143, 22.143)"><svg xmlns="http://www.w3.org/2000/svg" id="Layer_1" data-name="Layer 1" viewBox="0 0 100 100" width="44.286" height="44.286"><circle cx="50" cy="50" r="50" fill="#7678ED"/></svg></g><g transform="translate(354.29,&#10;                                442.86) rotate(90, 22.143, 22.143)"><svg xmlns="http://www.w3.org/2000/svg" id="Layer_1" data-name="Layer 1" viewBox="0 0 100 100" width="44.286" height="44.286"><path d="M50,100a50,50,0,1,1,50-50v50Z" fill="#3D348B"/></svg></g><g transform="translate(398.57,&#10;                                442.86) rotate(90, 22.143, 22.143)"><svg xmlns="http://www.w3.org/2000/svg" id="Layer_1" data-name="Layer 1" viewBox="0 0 100 100" width="44.286" height="44.286"><path d="M100,100A50,50,0,0,0,0,100Z" fill="#F7B801"/></svg></g><g transform="translate(354.29,&#10;                                487.15) rotate(270, 22.143, 22.143)"><svg xmlns="http://www.w3.org/2000/svg" id="Layer_1" data-name="Layer 1" viewBox="0 0 100 100" width="44.286" height="44.286"><circle cx="50" cy="50" r="50" fill="#7678ED"/></svg></g><g transform="translate(398.57,&#10;                                487.15) rotate(180, 22.143, 22.143)"><svg xmlns="http://www.w3.org/2000/svg" id="Layer_1" data-name="Layer 1" viewBox="0 0 100 100" width="44.286" height="44.286"><path d="M50,100h0A50,50,0,0,1,0,50V0H100V50A50,50,0,0,1,50,100Z" fill="#F18701"/></svg></g></g><g><g transform="translate(0.00,&#10;                                575.72) rotate(180, 22.143, 22.143)"><svg xmlns="http://www.w3.org/2000/svg" id="Layer_1" data-name="Layer 1" viewBox="0 0 100 100" width="44.286" height="44.286"><path d="M50,100h0A50,50,0,0,1,0,50V0H100V50A50,50,0,0,1,50,100Z" fill="#F18701"/></svg></g><g transform="translate(44.29,&#10;                                575.72) rotate(0, 22.143, 22.143)"><svg xmlns="http://www.w3.org/2000/svg" id="Layer_1" data-name="Layer 1" viewBox="0 0 100 100" width="44.286" height="44.286"><path d="M100,100A50,50,0,0,0,0,100Z" fill="#F7B801"/></svg></g><g transform="translate(88.57,&#10;                                531.43) rotate(0, 22.143, 22.143)"><svg xmlns="http://www.w3.org/2000/svg" id="Layer_1" data-name="Layer 1" viewBox="0 0 100 100" width="44.286" height="44.286"><path d="M100,100A50,50,0,0,0,0,100Z" fill="#F7B801"/></svg></g><g transform="translate(132.86,&#10;                                531.43) rotate(90, 22.143, 22.143)"><svg xmlns="http://www.w3.org/2000/svg" id="Layer_1" data-name="Layer 1" viewBox="0 0 100 100" width="44.286" height="44.286"><circle cx="50" cy="50" r="50" fill="#7678ED"/></svg></g><g transform="translate(88.57,&#10;                                575.72) rotate(180, 22.143, 22.143)"><svg xmlns="http://www.w3.org/2000/svg" id="Layer_1" data-name="Layer 1" viewBox="0 0 100 100" width="44.286" height="44.286"><circle cx="50" cy="50" r="50" fill="#7678ED"/></svg></g><g transform="translate(132.86,&#10;                                575.72) rotate(270, 22.143, 22.143)"><svg xmlns="http://www.w3.org/2000/svg" id="Layer_1" data-name="Layer 1" viewBox="0 0 100 100" width="44.286" height="44.286"><path d="M50,100h0A50,50,0,0,1,0,50V0H100V50A50,50,0,0,1,50,100Z" fill="#F18701"/></svg></g><g transform="translate(177.14,&#10;                                531.43) rotate(0, 22.143, 22.143)"><svg xmlns="http://www.w3.org/2000/svg" id="Layer_1" data-name="Layer 1" viewBox="0 0 100 100" width="44.286" height="44.286"><circle cx="50" cy="50" r="50" fill="#7678ED"/></svg></g><g transform="translate(221.43,&#10;                                531.43) rotate(180, 22.143, 22.143)"><svg xmlns="http://www.w3.org/2000/svg" id="Layer_1" data-name="Layer 1" viewBox="0 0 100 100" width="44.286" height="44.286"><path d="M100,100A50,50,0,0,0,0,100Z" fill="#F7B801"/></svg></g><g transform="translate(177.14,&#10;                                575.72) rotate(0, 22.143, 22.143)"><svg xmlns="http://www.w3.org/2000/svg" id="Layer_1" data-name="Layer 1" viewBox="0 0 100 100" width="44.286" height="44.286"><path d="M50,100h0A50,50,0,0,1,0,50V0H100V50A50,50,0,0,1,50,100Z" fill="#F18701"/></svg></g><g transform="translate(221.43,&#10;                                575.72) rotate(90, 22.143, 22.143)"><svg xmlns="http://www.w3.org/2000/svg" id="Layer_1" data-name="Layer 1" viewBox="0 0 100 100" width="44.286" height="44.286"><path d="M50,100h0A50,50,0,0,1,0,50V0H100V50A50,50,0,0,1,50,100Z" fill="#F18701"/></svg></g><g transform="translate(265.72,&#10;                                575.72) rotate(90, 22.143, 22.143)"><svg xmlns="http://www.w3.org/2000/svg" id="Layer_1" data-name="Layer 1" viewBox="0 0 100 100" width="44.286" height="44.286"><path d="M50,100h0A50,50,0,0,1,0,50V0H100V50A50,50,0,0,1,50,100Z" fill="#F18701"/></svg></g><g transform="translate(310.00,&#10;                                575.72) rotate(90, 22.143, 22.143)"><svg xmlns="http://www.w3.org/2000/svg" id="Layer_1" data-name="Layer 1" viewBox="0 0 100 100" width="44.286" height="44.286"><path d="M100,100A50,50,0,0,0,0,100Z" fill="#F7B801"/></svg></g><g transform="translate(354.29,&#10;                                531.43) rotate(0, 22.143, 22.143)"><svg xmlns="http://www.w3.org/2000/svg" id="Layer_1" data-name="Layer 1" viewBox="0 0 100 100" width="44.286" height="44.286"><path d="M50,100a50,50,0,1,1,50-50v50Z" fill="#3D348B"/></svg></g><g transform="translate(398.57,&#10;                                531.43) rotate(90, 22.143, 22.143)"><svg xmlns="http://www.w3.org/2000/svg" id="Layer_1" data-name="Layer 1" viewBox="0 0 100 100" width="44.286" height="44.286"><circle cx="50" cy="50" r="50" fill="#7678ED"/></svg></g></g></svg>